<svg xmlns="http://www.w3.org/2000/svg" width="569.999" height="396.766" viewBox="0 0 569.999 396.766">
  <g id="Vidyalaya_Spain_2" transform="translate(-212.001 -1103)">
    <g id="Vidyalaya_Israel_1" transform="translate(17063 -7155.443)">
      <g id="Group_171770" data-name="Group 171770" transform="translate(-16851 8258.441)">
        <path id="Path_80166" data-name="Path 80166" d="M678.292,317.954c-4.821,39.255-32.637,32.723-37.029,78.366-1.568,16.291,10.289,26.532,16.18,40.637,6.524,15.59,4.213,29.6-4.6,40.283H169.362c-10.688-4.906-20.887-10.126-29.764-16.394-12.221-8.612-21.893-19.228-26.825-33.782-4.452-13.151-7.882-25.838,3.813-35.813,6.349-5.423,12.958-9.608,18.7-14.635a45.448,45.448,0,0,0,11.033-13.655c21.076-41.21-5.96-77.527-15.889-118.763-.958-4.007-1.835-8.054-2.534-12.115-1.821-10.343-2.668-20.836-1.588-31.057a68.448,68.448,0,0,1,8.478-27.132c7.373-12.919,26.472-32,46.995-28.359,15.421,2.739,25.125,17.811,39.049,23.262,17.547,6.868,37.014,1.376,50.159-8.721,25.566-19.637,41.949-56.963,85.644-53.542,14.816,1.158,24.818,13.082,37.809,18.547,17.859,7.522,35.476,7.467,52.543.149,19.628-8.421,33.1-24.065,52.368-33.019A130.405,130.405,0,0,1,519.7,84.757c15.5-4.279,32.458-5.792,48.448-2.494a94.235,94.235,0,0,1,9.65,2.494c53.458,16.775,55.974,71.721,53.458,111.813-1.154,18.369-15.58,50.049-4.923,69.029S682.954,279.995,678.292,317.954Z" transform="translate(-108.623 -80.472)" fill="rgba(252,79,25,0.99)" opacity="0.1"/>
      </g>
    </g>
    <g id="Group_185439" data-name="Group 185439" transform="translate(13.795 960.947)">
      <g id="Group_185403" data-name="Group 185403" transform="translate(408.464 486.731)">
        <g id="Group_185401" data-name="Group 185401" transform="translate(4.788)">
          <path id="Path_96577" data-name="Path 96577" d="M1159.8,1557.5l-.849-.465a1.877,1.877,0,0,1-.744-2.545l3.9-7.128a1.877,1.877,0,0,1,2.545-.744l1.217.666a.367.367,0,0,1-.352.644l-1.217-.666a1.142,1.142,0,0,0-1.549.453l-3.9,7.128a1.143,1.143,0,0,0,.453,1.549l.85.465a1.142,1.142,0,0,0,1.549-.453l2.591-4.731a.367.367,0,0,1,.644.352l-2.591,4.732A1.877,1.877,0,0,1,1159.8,1557.5Z" transform="translate(-1157.975 -1546.386)" fill="#afcdfb"/>
        </g>
        <g id="Group_185402" data-name="Group 185402" transform="translate(0 0.851)">
          <path id="Path_96578" data-name="Path 96578" d="M1133.417,1569.029l-1.523-.834a3.037,3.037,0,0,1-1.06-4.151l5.868-10.716a.367.367,0,0,1,.644.352l-5.868,10.716a2.3,2.3,0,0,0,.769,3.155l1.523.834a2.3,2.3,0,0,0,3.072-1.052l6.684-12.206a2.3,2.3,0,0,0-.769-3.155.367.367,0,0,1,.352-.644,3.037,3.037,0,0,1,1.06,4.151l-6.683,12.206A3.037,3.037,0,0,1,1133.417,1569.029Z" transform="translate(-1130.426 -1551.283)" fill="#afcdfb"/>
        </g>
      </g>
      <g id="Group_185412" data-name="Group 185412" transform="translate(306.552 246.672)">
        <path id="Rectangle_151813" data-name="Rectangle 151813" d="M20,0H183.567a20,20,0,0,1,20,20V165.531a8,8,0,0,1-8,8H8a8,8,0,0,1-8-8V20A20,20,0,0,1,20,0Z" transform="translate(0)" fill="#fff"/>
        <path id="Rectangle_151814" data-name="Rectangle 151814" d="M19.256,0H184.311a19.256,19.256,0,0,1,19.256,19.256v0a0,0,0,0,1,0,0H0a0,0,0,0,1,0,0v0A19.256,19.256,0,0,1,19.256,0Z" transform="translate(0)" fill="#699dee"/>
        <g id="Group_185404" data-name="Group 185404" transform="translate(8.232 7.21)">
          <path id="Path_96579" data-name="Path 96579" d="M915.682,427.6a2.3,2.3,0,1,1,2.3,2.3A2.3,2.3,0,0,1,915.682,427.6Z" transform="translate(-915.682 -425.3)" fill="#dde7fe"/>
          <path id="Path_96580" data-name="Path 96580" d="M971.275,427.6a2.3,2.3,0,1,1,2.3,2.3A2.3,2.3,0,0,1,971.275,427.6Z" transform="translate(-961.613 -425.3)" fill="#dde7fe"/>
          <path id="Path_96581" data-name="Path 96581" d="M1026.869,427.6a2.3,2.3,0,1,1,2.3,2.3A2.3,2.3,0,0,1,1026.869,427.6Z" transform="translate(-1007.544 -425.3)" fill="#dde7fe"/>
        </g>
        <rect id="Rectangle_151815" data-name="Rectangle 151815" width="57.704" height="57.704" transform="translate(16.132 34.535)" fill="#cde0fb" opacity="0.5"/>
        <path id="Path_96582" data-name="Path 96582" d="M1418.953,586.53h-45.9a2.181,2.181,0,0,1-2.181-2.181h0a2.181,2.181,0,0,1,2.181-2.181h45.9a2.181,2.181,0,0,1,2.181,2.181h0A2.181,2.181,0,0,1,1418.953,586.53Z" transform="translate(-1283.527 -547.694)" fill="#7c9af2" opacity="0.5"/>
        <path id="Path_96583" data-name="Path 96583" d="M1734.752,569.7h-45.9a2.181,2.181,0,0,1-2.181-2.181h0a2.181,2.181,0,0,1,2.181-2.181h45.9a2.181,2.181,0,0,1,2.181,2.181h0A2.181,2.181,0,0,1,1734.752,569.7Z" transform="translate(-1544.438 -533.79)" fill="#7c9af2" opacity="0.5"/>
        <g id="Group_185405" data-name="Group 185405" transform="translate(87.346 52.797)" opacity="0.3">
          <path id="Path_96584" data-name="Path 96584" d="M1428.039,690.416h-55.752a1.414,1.414,0,0,1-1.414-1.414h0a1.414,1.414,0,0,1,1.414-1.413h55.752a1.413,1.413,0,0,1,1.413,1.413h0A1.413,1.413,0,0,1,1428.039,690.416Z" transform="translate(-1370.873 -687.589)" fill="#bdd1f9"/>
          <path id="Path_96585" data-name="Path 96585" d="M1745.048,690.416h-14.717a1.414,1.414,0,0,1-1.414-1.414h0a1.414,1.414,0,0,1,1.414-1.413h14.717a1.413,1.413,0,0,1,1.413,1.413h0A1.413,1.413,0,0,1,1745.048,690.416Z" transform="translate(-1666.687 -687.589)" fill="#bdd1f9"/>
          <path id="Path_96586" data-name="Path 96586" d="M1393.323,740.854h-21.036a1.414,1.414,0,0,1-1.414-1.414h0a1.414,1.414,0,0,1,1.414-1.413h21.036a1.414,1.414,0,0,1,1.414,1.413h0A1.414,1.414,0,0,1,1393.323,740.854Z" transform="translate(-1370.873 -729.261)" fill="#bdd1f9"/>
          <path id="Path_96587" data-name="Path 96587" d="M1552.335,740.854H1523.51a1.413,1.413,0,0,1-1.413-1.414h0a1.413,1.413,0,0,1,1.413-1.413h28.825a1.413,1.413,0,0,1,1.413,1.413h0A1.413,1.413,0,0,1,1552.335,740.854Z" transform="translate(-1495.814 -729.261)" fill="#bdd1f9"/>
          <path id="Path_96588" data-name="Path 96588" d="M1745.048,740.854h-14.717a1.414,1.414,0,0,1-1.414-1.414h0a1.414,1.414,0,0,1,1.414-1.413h14.717a1.413,1.413,0,0,1,1.413,1.413h0A1.413,1.413,0,0,1,1745.048,740.854Z" transform="translate(-1666.687 -729.261)" fill="#bdd1f9"/>
          <path id="Path_96589" data-name="Path 96589" d="M1400.83,784.466h-28.543a1.414,1.414,0,0,1-1.414-1.414h0a1.414,1.414,0,0,1,1.414-1.413h28.543a1.413,1.413,0,0,1,1.413,1.413h0A1.413,1.413,0,0,1,1400.83,784.466Z" transform="translate(-1370.873 -765.293)" fill="#bdd1f9"/>
          <path id="Path_96590" data-name="Path 96590" d="M1628.209,784.466h-46.683a1.413,1.413,0,0,1-1.414-1.414h0a1.413,1.413,0,0,1,1.414-1.413h46.683a1.413,1.413,0,0,1,1.413,1.413h0A1.413,1.413,0,0,1,1628.209,784.466Z" transform="translate(-1543.745 -765.293)" fill="#bdd1f9"/>
        </g>
        <g id="Group_185406" data-name="Group 185406" transform="translate(87.346 80.646)" opacity="0.3">
          <path id="Path_96591" data-name="Path 96591" d="M1428.039,850.647h-55.752a1.414,1.414,0,0,1-1.414-1.413h0a1.414,1.414,0,0,1,1.414-1.414h55.752a1.413,1.413,0,0,1,1.413,1.414h0A1.413,1.413,0,0,1,1428.039,850.647Z" transform="translate(-1370.873 -847.82)" fill="#bdd1f9"/>
          <path id="Path_96592" data-name="Path 96592" d="M1745.048,850.647h-14.717a1.414,1.414,0,0,1-1.414-1.413h0a1.414,1.414,0,0,1,1.414-1.414h14.717a1.413,1.413,0,0,1,1.413,1.414h0A1.413,1.413,0,0,1,1745.048,850.647Z" transform="translate(-1666.687 -847.82)" fill="#bdd1f9"/>
          <path id="Path_96593" data-name="Path 96593" d="M1393.323,901.085h-21.036a1.414,1.414,0,0,1-1.414-1.413h0a1.414,1.414,0,0,1,1.414-1.414h21.036a1.414,1.414,0,0,1,1.414,1.414h0A1.414,1.414,0,0,1,1393.323,901.085Z" transform="translate(-1370.873 -889.492)" fill="#bdd1f9"/>
          <path id="Path_96594" data-name="Path 96594" d="M1552.335,901.085H1523.51a1.413,1.413,0,0,1-1.413-1.413h0a1.413,1.413,0,0,1,1.413-1.414h28.825a1.413,1.413,0,0,1,1.413,1.414h0A1.413,1.413,0,0,1,1552.335,901.085Z" transform="translate(-1495.814 -889.492)" fill="#bdd1f9"/>
        </g>
        <g id="Group_185407" data-name="Group 185407" transform="translate(25.904 43.136)">
          <path id="Path_96595" data-name="Path 96595" d="M1033.462,632.006h5.959l16.1,36.854h-6.8l-3.711-8.834h-17.3l-3.764,8.834h-6.587Zm9.2,22.321-6.325-14.637-6.273,14.637Z" transform="translate(-1017.361 -632.006)" fill="#bdd1f9"/>
        </g>
        <g id="Group_185408" data-name="Group 185408" transform="translate(16.132 103.863)">
          <rect id="Rectangle_151816" data-name="Rectangle 151816" width="32.235" height="6.223" fill="#f99746"/>
          <rect id="Rectangle_151817" data-name="Rectangle 151817" width="32.235" height="6.223" transform="translate(0 6.223)" fill="#ed7d2b"/>
          <rect id="Rectangle_151818" data-name="Rectangle 151818" width="32.235" height="6.223" transform="translate(0 12.446)" fill="#474fea"/>
        </g>
        <g id="Group_185409" data-name="Group 185409" transform="translate(53.038 104.698)">
          <path id="Path_96596" data-name="Path 96596" d="M1192.553,988.9h-17.736a1.344,1.344,0,0,1-1.344-1.344h0a1.344,1.344,0,0,1,1.344-1.344h17.736a1.344,1.344,0,0,1,1.344,1.344h0A1.344,1.344,0,0,1,1192.553,988.9Z" transform="translate(-1173.474 -986.208)" fill="#bdd1f9"/>
          <path id="Path_96597" data-name="Path 96597" d="M1186.578,1016.149h-11.761a1.344,1.344,0,0,1-1.344-1.344h0a1.344,1.344,0,0,1,1.344-1.344h11.761a1.344,1.344,0,0,1,1.344,1.344h0A1.344,1.344,0,0,1,1186.578,1016.149Z" transform="translate(-1173.474 -1008.725)" fill="#bdd1f9"/>
        </g>
        <g id="Group_185410" data-name="Group 185410" transform="translate(16.132 136.038)">
          <rect id="Rectangle_151819" data-name="Rectangle 151819" width="32.235" height="12.715" fill="#f99746"/>
          <rect id="Rectangle_151820" data-name="Rectangle 151820" width="32.235" height="9.094" transform="translate(0 9.575)" fill="#b5453c"/>
          <path id="Path_96598" data-name="Path 96598" d="M961.137,1166.523l11.564,9.713-11.564,8.956Z" transform="translate(-961.137 -1166.523)" fill="#474fea"/>
        </g>
        <g id="Group_185411" data-name="Group 185411" transform="translate(53.038 136.873)">
          <path id="Path_96599" data-name="Path 96599" d="M1192.553,1174.019h-17.736a1.344,1.344,0,0,1-1.344-1.344h0a1.344,1.344,0,0,1,1.344-1.344h17.736a1.344,1.344,0,0,1,1.344,1.344h0A1.344,1.344,0,0,1,1192.553,1174.019Z" transform="translate(-1173.474 -1171.331)" fill="#bdd1f9"/>
          <path id="Path_96600" data-name="Path 96600" d="M1186.578,1201.273h-11.761a1.344,1.344,0,0,1-1.344-1.344h0a1.344,1.344,0,0,1,1.344-1.344h11.761a1.344,1.344,0,0,1,1.344,1.344h0A1.344,1.344,0,0,1,1186.578,1201.273Z" transform="translate(-1173.474 -1193.848)" fill="#bdd1f9"/>
        </g>
      </g>
      <g id="Group_185414" data-name="Group 185414" transform="translate(450.533 225.815)">
        <path id="Path_96601" data-name="Path 96601" d="M1833.095,386.4s.839,10.006-1.441,9.854-6.781-4.556-15.863-3.84-20.2,2.7-26.913-9.184,8.591-15.309,8.591-15.309l35.626,18.479Z" transform="translate(-1771.453 -349.824)" fill="#233862"/>
        <path id="Path_96602" data-name="Path 96602" d="M1739.059,299.654l45.767,3.764.952-2.036L1741.9,268.993l-44.323-5.178-.851,1.822,42.333,34.017Z" transform="translate(-1696.726 -263.815)" fill="#2b478b"/>
        <g id="Group_185413" data-name="Group 185413" transform="translate(68.777 69.02)">
          <path id="Path_96603" data-name="Path 96603" d="M2102.952,662.215a1.774,1.774,0,1,0-1.218,2.194,1.775,1.775,0,0,0,1.218-2.194Z" transform="translate(-2098.249 -660.928)" fill="#f99746"/>
          <path id="Path_96604" data-name="Path 96604" d="M2095.615,671.161c1.836-.143,2.265,16.56,2.265,16.56a4.066,4.066,0,0,1-1.785.431c-.588-.132-.889-2.388-.889-2.388l-.056,2.365a6.435,6.435,0,0,1-2.711-.42s.273-16.321,3.177-16.547Z" transform="translate(-2092.438 -669.381)" fill="#f99746"/>
        </g>
        <path id="Path_96605" data-name="Path 96605" d="M1993.739,414.959l-.332-36.491-.237-.177-23.906-17.684-.859,1.162,23.668,17.508.535,35.62Z" transform="translate(-1921.187 -343.784)" fill="#f99746"/>
      </g>
      <g id="Group_185425" data-name="Group 185425" transform="translate(479.125 425.376)">
        <g id="Group_185416" data-name="Group 185416" transform="translate(25.251 43.575)">
          <g id="Group_185415" data-name="Group 185415">
            <path id="Rectangle_151821" data-name="Rectangle 151821" d="M0,0H96.755a18.886,18.886,0,0,1,18.886,18.886v0A19.314,19.314,0,0,1,96.327,38.2H0a0,0,0,0,1,0,0V0A0,0,0,0,1,0,0Z" transform="translate(5.365 0)" fill="#fcecdb"/>
            <path id="Path_96606" data-name="Path 96606" d="M1889.523,1459.8v5.747a17.53,17.53,0,0,1-2.121,8.419,15.472,15.472,0,0,1-13.517,8.317h-189.35a2.351,2.351,0,0,1-2.268-2.426V1479a2.351,2.351,0,0,1,2.268-2.426h115.426a15.808,15.808,0,0,0,1.62-2.605,16.408,16.408,0,0,0,1.692-7.3v-7.305a16.25,16.25,0,0,0-.467-3.888,15.678,15.678,0,0,0-2.677-5.672H1684.536a2.352,2.352,0,0,1-2.268-2.428v-.858a2.352,2.352,0,0,1,2.268-2.428h190.3c6.706,0,12.362,4.812,14.118,11.386A16.7,16.7,0,0,1,1889.523,1459.8Z" transform="translate(-1682.268 -1444.086)" fill="#699dee"/>
            <path id="Path_96607" data-name="Path 96607" d="M1888.957,1455.472h-86.151a15.678,15.678,0,0,0-2.677-5.672H1684.536a2.352,2.352,0,0,1-2.268-2.428v-.858a2.352,2.352,0,0,1,2.268-2.428h190.3C1881.545,1444.086,1887.2,1448.9,1888.957,1455.472Z" transform="translate(-1682.268 -1444.086)" fill="#548ee2"/>
          </g>
          <path id="Path_96608" data-name="Path 96608" d="M1713.136,1553.983l14.02.642-14.02.387Z" transform="translate(-1707.771 -1534.883)" fill="#f4d2b8"/>
          <path id="Path_96609" data-name="Path 96609" d="M1713.136,1588.469l33.355.642-33.355.387Z" transform="translate(-1707.771 -1563.375)" fill="#f4d2b8"/>
        </g>
        <g id="Group_185420" data-name="Group 185420" transform="translate(1.666 81.695)">
          <g id="Group_185418" data-name="Group 185418" transform="translate(0 0)">
            <g id="Group_185417" data-name="Group 185417">
              <path id="Rectangle_151822" data-name="Rectangle 151822" d="M0,0H97.634a15.324,15.324,0,0,1,15.324,15.324v0a14.39,14.39,0,0,1-14.39,14.39H0a0,0,0,0,1,0,0V0A0,0,0,0,1,0,0Z" transform="translate(112.958 29.713) rotate(180)" fill="#f99746"/>
              <path id="Rectangle_151823" data-name="Rectangle 151823" d="M0,0H111.387a15.023,15.023,0,0,1,15.023,15.023v0a14.69,14.69,0,0,1-14.69,14.69H0a0,0,0,0,1,0,0V0A0,0,0,0,1,0,0Z" transform="translate(220.691 29.713) rotate(180)" fill="#fcecdb"/>
              <rect id="Rectangle_151824" data-name="Rectangle 151824" width="141.774" height="4.444" rx="2.222" transform="translate(226.554 29.713) rotate(180)" fill="#f99746"/>
              <rect id="Rectangle_151825" data-name="Rectangle 151825" width="141.774" height="4.444" rx="2.222" transform="translate(226.554 4.444) rotate(180)" fill="#f99746"/>
            </g>
            <path id="Path_96610" data-name="Path 96610" d="M2743.48,1748.9l-15.326.5,15.326.3Z" transform="translate(-2522.789 -1734.039)" fill="#f4d2b8"/>
            <path id="Path_96611" data-name="Path 96611" d="M2643.012,1709.552l-36.461.5,36.461.3Z" transform="translate(-2422.321 -1701.533)" fill="#f4d2b8"/>
          </g>
          <g id="Group_185419" data-name="Group 185419" transform="translate(184.605 8.419)">
            <path id="Path_96612" data-name="Path 96612" d="M2608.711,1711.853a6.9,6.9,0,0,1,2.08,3.375,5.538,5.538,0,0,1,.162,1.174c.086,2.788,0,9.1,0,9.1l4.613-3.155,4.6,3.155v-8.552a7.529,7.529,0,0,0-1.128-4.22,1.718,1.718,0,0,0-1.274-.875Z" transform="translate(-2608.711 -1711.853)" fill="#699dee"/>
            <path id="Path_96613" data-name="Path 96613" d="M2608.711,1711.853a6.9,6.9,0,0,1,2.08,3.375l9.244.125s-.363-3-2.271-3.5Z" transform="translate(-2608.711 -1711.853)" fill="#568cdb"/>
          </g>
        </g>
        <g id="Group_185424" data-name="Group 185424">
          <g id="Group_185422" data-name="Group 185422">
            <g id="Group_185421" data-name="Group 185421">
              <path id="Rectangle_151826" data-name="Rectangle 151826" d="M0,0H91.522a21.583,21.583,0,0,1,21.583,21.583v0A22.072,22.072,0,0,1,91.033,43.655H0a0,0,0,0,1,0,0V0A0,0,0,0,1,0,0Z" transform="translate(5.247)" fill="#fcecdb"/>
              <path id="Path_96614" data-name="Path 96614" d="M1655.39,1210.319v9.4a11.337,11.337,0,0,1-4.617,9.356,8.067,8.067,0,0,1-4.553,1.436H1539.253a2.52,2.52,0,0,0-2.27,2.711v1.109a2.52,2.52,0,0,0,2.27,2.711h184.788c5.3,0,9.988-3.148,12.818-7.966a21.172,21.172,0,0,0,2.832-10.725v-7.413a20.321,20.321,0,0,0-1.459-7.632c-2.376-5.87-7.409-9.918-13.235-9.918H1539.253a2.518,2.518,0,0,0-2.27,2.709v1.109a2.52,2.52,0,0,0,2.27,2.711h107.295a8.278,8.278,0,0,1,6.507,3.389A11.548,11.548,0,0,1,1655.39,1210.319Z" transform="translate(-1536.983 -1193.38)" fill="#afcdfb"/>
              <path id="Path_96615" data-name="Path 96615" d="M1536.983,1402.865v1.109a2.52,2.52,0,0,0,2.27,2.711h184.788c5.3,0,9.988-3.148,12.818-7.966h-86.086a8.068,8.068,0,0,1-4.553,1.436H1539.253A2.52,2.52,0,0,0,1536.983,1402.865Z" transform="translate(-1536.983 -1363.029)" fill="#a4c4f4"/>
            </g>
            <path id="Path_96616" data-name="Path 96616" d="M1567.17,1318.963l13.713.734-13.713.442Z" transform="translate(-1561.923 -1297.135)" fill="#f4d2b8"/>
            <path id="Path_96617" data-name="Path 96617" d="M1567.17,1261.158l32.623.734-32.623.442Z" transform="translate(-1561.923 -1249.377)" fill="#f4d2b8"/>
          </g>
          <g id="Group_185423" data-name="Group 185423" transform="translate(21.748 12.369)">
            <path id="Path_96618" data-name="Path 96618" d="M1677.9,1264.541a7.654,7.654,0,0,0-2.866,3.66,4.813,4.813,0,0,0-.223,1.273c-.119,3.023,0,9.865,0,9.865l-6.356-3.421-6.34,3.421v-9.273a6.913,6.913,0,0,1,1.554-4.576,2.462,2.462,0,0,1,1.756-.948Z" transform="translate(-1662.113 -1264.541)" fill="#f99746"/>
            <path id="Path_96619" data-name="Path 96619" d="M1678.762,1264.541a7.654,7.654,0,0,0-2.866,3.66l-12.738.135s.5-3.258,3.129-3.8Z" transform="translate(-1662.976 -1264.541)" fill="#ed7d2b"/>
          </g>
        </g>
      </g>
      <g id="girl_2" data-name="girl 2" transform="translate(272.559 432.892)">
        <path id="Path_96620" data-name="Path 96620" d="M799.177,1422.333s19.912,8.675,23.527,8.518,25.887-6.784,25.887-6.784l-.567,3.831s-17.188,9.885-23.2,10.446c-5.916.552-26.146-5.31-28.1-6.547S793.5,1423.586,799.177,1422.333Z" transform="translate(-764.382 -1390.054)" fill="#ed985f"/>
        <path id="Path_96621" data-name="Path 96621" d="M650.288,1236.979s-7.346-1.4-11,1.276c-6.627,4.84-6.983,21.525-9.467,24.01s-8.471,1.425-9,14.286,2.384,13.936-1.09,19.677,1.47,11.487,1.47,11.487-2.025-3.169-1.157-5.457c0,0,.843,5.048,4.05,6.232s3.682,2.051,4.194,3.786c0,0,27.361-14.02,27.391-23.965s5.384-19.8,2.755-24.1a9.535,9.535,0,0,1,1.315,3.895,5.127,5.127,0,0,0-1.157-5.837c-2.735-2.814,3.208-8.638,2.328-15.383C660.307,1242.253,657.057,1237.181,650.288,1236.979Z" transform="translate(-618.485 -1236.615)" fill="#233862"/>
        <path id="Path_96622" data-name="Path 96622" d="M725.872,1377.561a19.149,19.149,0,0,1-6.694,2.849c-10.319,2.384-14.273-6.337-15.758-12.324a8.87,8.87,0,0,1,3.5-1.074c.746-.088,1.53-.146,2.18-.179,1.159-.887,2.885-4.52,3.267-10.159l.485.13,8.133,2.226s-.373,2.585-.555,5.029c-.141,1.912-.163,3.739.2,4.186.635.138,1.015.228,1.015.228a.022.022,0,0,0,0,.008A52.349,52.349,0,0,1,725.872,1377.561Z" transform="translate(-688.657 -1335.807)" fill="#ffb27d"/>
        <path id="Path_96623" data-name="Path 96623" d="M765.8,1359.659s-.374,2.583-.555,5.029c-4.607-.461-6.746-4.848-7.578-7.254Z" transform="translate(-733.475 -1336.435)" fill="#ed985f"/>
        <path id="Path_96624" data-name="Path 96624" d="M762.6,1294.941s-10.936-.6-10.455-7.408-.607-11.465,6.4-11.368,8.174,2.79,8.566,5.1S765.456,1294.923,762.6,1294.941Z" transform="translate(-728.901 -1269.291)" fill="#ffb27d"/>
        <path id="Path_96625" data-name="Path 96625" d="M750.809,1270.794c-1.542-2.167-2.85-1.81-3.609-1.246a7.655,7.655,0,0,0-9.93.866,13.03,13.03,0,0,1-4.8,7.374s1.9,1.373,6.577.521a7.818,7.818,0,0,0,3.9-2.3,25.545,25.545,0,0,1-4.77,5.042c5.664-2.141,8.413-9.608,8.69-10.4a8.581,8.581,0,0,1,2.154,3.345c.42,1.772,2.233,4.542,3.281,4.495C752.3,1278.494,753.121,1274.045,750.809,1270.794Z" transform="translate(-712.657 -1262.625)" fill="#233862"/>
        <path id="Path_96626" data-name="Path 96626" d="M656.752,1442.644c-.988-5.049-4.208-25.219-.988-31.709,1.156-2.332,5.694-2.542,10.673-2.338,1.549,1,7.453,4.78,9.877,4.308.026-.005.073-.016.136-.032,1.142-.286,1.573-1.088.62-1.779a21.748,21.748,0,0,1,5.528.339c1.73.326,6.395,2.739,6.395,2.739s-2.349,4.245-5.813,5.709c.589,5.269-.287,7.594-5.753,19.765-4.62,10.288.623,19.551.623,19.551s-27.193,21.863-27.344,10.731C650.593,1461.547,658.015,1449.1,656.752,1442.644Z" transform="translate(-645.105 -1378.656)" fill="#f9ddbf"/>
        <path id="Path_96627" data-name="Path 96627" d="M736.511,1552.477a5.056,5.056,0,0,0,3.637-2.214q.2-.295.42-.633c3.1-4.686,4.3-19.036,11.262-34.323,1.7-3.722,7.783-4.391,9.443-8.6,0,0,4.085-13.637-7.82-14.039s-31.884,37.944-32.2,41.965C720.949,1538.53,713.383,1555.087,736.511,1552.477Z" transform="translate(-702.217 -1448.163)" fill="#dd6d22"/>
        <path id="Path_96628" data-name="Path 96628" d="M1006.641,1793.2H989.7s-.634-2.7.479-4.542c.985-1.627.607-2.554-.122-3.9a6.585,6.585,0,0,0,2.854.537,5.971,5.971,0,0,0,2.52-.886,60.976,60.976,0,0,0,4.828,5.072C1001.362,1790.28,1006.3,1790,1006.641,1793.2Z" transform="translate(-925.03 -1689.203)" fill="#233862"/>
        <path id="Path_96629" data-name="Path 96629" d="M890.706,1494.051c1.02,7.649,5,31.793,12.033,43.572,2.266,3.8-5.709,5.927-5.752,5.915-1.07-.28-2.852-1.985-3.673-2.725-5.706-5.142-17.29-19.7-17.29-31.379,0-5.693-.1-16.564,4.04-19.327C882.613,1488.4,890.3,1491.013,890.706,1494.051Z" transform="translate(-831.263 -1445.603)" fill="#ed7d2b"/>
        <path id="Path_96630" data-name="Path 96630" d="M664.981,1548.029s.628-.874,1.723-2.534c1.3-1.974,2.745-5.858,4.495-10.837,1.838-5.227,4.018-11.657,6.743-18.348.841-2.065,1.734-4.156,2.684-6.243,1.7-3.722,6.361-3.207,8.021-7.415,0,0,6.476-14.585-5.429-14.988s-34.527,39.017-35.827,42.835C645.967,1534.679,639.024,1552.033,664.981,1548.029Z" transform="translate(-640.792 -1444.028)" fill="#f99746"/>
        <path id="Path_96631" data-name="Path 96631" d="M935.074,1793.2H918.129s-.633-2.7.479-4.542c.985-1.627.607-2.554-.122-3.9a6.584,6.584,0,0,0,2.854.537,5.971,5.971,0,0,0,2.52-.886,60.989,60.989,0,0,0,4.828,5.072C929.8,1790.28,934.733,1790,935.074,1793.2Z" transform="translate(-865.902 -1689.203)" fill="#2b478b"/>
        <path id="Path_96632" data-name="Path 96632" d="M786.136,1617.169c1.838-5.227,4.018-11.657,6.743-18.348-.712-5.069-2.247-9.5-4.828-11.291C788.051,1587.529,781.789,1606.928,786.136,1617.169Z" transform="translate(-755.729 -1526.539)" fill="#ed7d2b"/>
        <path id="Path_96633" data-name="Path 96633" d="M821.687,1494.95c1.02,7.649,2.457,32.335,9.486,44.114,2.266,3.8-5.709,5.926-5.752,5.915-1.07-.28-2.852-1.985-3.673-2.725-5.706-5.142-17.29-19.7-17.29-31.379,0-5.693,6.68-16.108,10.82-18.871A4.164,4.164,0,0,1,821.687,1494.95Z" transform="translate(-772.135 -1447.045)" fill="#f99746"/>
        <path id="Path_96634" data-name="Path 96634" d="M805.409,1360.514a10.1,10.1,0,0,0-3.943-.173s.154,1.135,2.3,1.247A1.711,1.711,0,0,0,805.409,1360.514Z" transform="translate(-769.663 -1338.776)" fill="#fff"/>
        <g id="Group_185427" data-name="Group 185427" transform="translate(60.926 19.659)">
          <g id="Group_185426" data-name="Group 185426">
            <path id="Path_96635" data-name="Path 96635" d="M1062.39,1356.063l-3.513-6.338-7.6,21.206,4.484,4.813Z" transform="translate(-1036.982 -1349.725)" fill="#163560"/>
            <path id="Path_96636" data-name="Path 96636" d="M976.1,1389.9l-7.064,20.181,18.778-4.212,6.629-19.681Z" transform="translate(-969.031 -1379.854)" fill="#1c468a"/>
            <path id="Path_96637" data-name="Path 96637" d="M969.621,1424.288l-.329-.576,6.685-19.1.334.51Z" transform="translate(-969.246 -1395.074)" fill="#efdece"/>
            <path id="Path_96638" data-name="Path 96638" d="M1007.752,1388.145l17.8-3.464.874.263-18.343,3.712Z" transform="translate(-1001.022 -1378.605)" fill="#fcecdb"/>
          </g>
          <path id="Path_96639" data-name="Path 96639" d="M1085.645,1357.527l-3.8-6.03-2.422,6.808,5.346-1.04Z" transform="translate(-1060.238 -1351.189)" fill="#efdece"/>
        </g>
        <path id="Path_96640" data-name="Path 96640" d="M742.566,1410.637c-.611-.117-1.921-.611-3.247-.976a2.721,2.721,0,0,0,.959-1.073c.237-.748.394-.988-.394-.751s-3.549,1.5-3.549,1.5l.007,0c-1.568.458-3.013,2.675-3.013,2.675s-19.414,6.825-21.75,6.942c-3.613.181-27.664-8.676-27.664-8.676-5.676,1.253-4.4,8.227-2.449,9.464s19.259,7.533,29.515,7.652c5.195.06,24.091-12.085,24.091-12.085a8.043,8.043,0,0,1,3.944-.694c1.735.316,5.758,0,6.626-1.42S743.592,1410.834,742.566,1410.637Z" transform="translate(-669.154 -1378.005)" fill="#ffb27d"/>
        <path id="Path_96641" data-name="Path 96641" d="M692.194,1424.047a13.214,13.214,0,0,1-9.538,8.359s-12.2-3.758-6.125-12.069C676.53,1420.336,682.536,1415.874,692.194,1424.047Z" transform="translate(-665.041 -1387.4)" fill="#f9ddbf"/>
        <path id="Path_96642" data-name="Path 96642" d="M1094.669,1410.907h0a1.866,1.866,0,0,0-.065-.554s-1.74-2.753-2.31-2.865c-1.736-.343-1.736,1.943-1.368,3.417a5.991,5.991,0,0,0,1.437,2.545h0l-.069,2.154A4.607,4.607,0,0,0,1094.669,1410.907Z" transform="translate(-1008.652 -1377.762)" fill="#ffb27d"/>
      </g>
      <g id="Group_185435" data-name="Group 185435" transform="translate(544.076 382.241)">
        <path id="Path_96657" data-name="Path 96657" d="M2197.371,1396.124a20.975,20.975,0,0,0,7.239,7.845l16.9.119S2194.937,1391.818,2197.371,1396.124Z" transform="translate(-2147.414 -1316.993)" fill="#233862"/>
        <g id="Group_185432" data-name="Group 185432" transform="translate(0 0)">
          <path id="Path_96658" data-name="Path 96658" d="M2204.487,1584.384a1.563,1.563,0,0,1,.267,1.673.013.013,0,0,1,0,.008c-.411,1.111-1.752,2.346-3.308,3.578-.2.158-.376.3-.53.436-.041.035-.081.07-.119.105l-.091.082c-1.452,1.32-.912,1.628-3.523,4.309-2.978,3.054-5.013,3.1-5.59,2.811-.488-.243.519-1.866,1.634-3.692.054-.088.107-.177.162-.266.149-.243.3-.489.444-.733,1.308-2.2.984-3.235.7-6.521-.23-2.67-4.046-14.936-4.046-14.936l5.671-.936s1.637,9.758,3.506,11.272c1,.807,2.125.825,3.086,1.425.068.042.135.084.2.128A7.439,7.439,0,0,1,2204.487,1584.384Z" transform="translate(-2141.853 -1461.656)" fill="#ffb27d"/>
          <path id="Path_96659" data-name="Path 96659" d="M2209.142,1644.738a1.563,1.563,0,0,1,.267,1.673.013.013,0,0,1,0,.008,12.028,12.028,0,0,1-3.313,3.567c-.2.161-.37.309-.525.447-.041.035-.081.07-.119.105l-.092.082c-1.452,1.32-.911,1.628-3.522,4.309-2.978,3.054-5.013,3.1-5.59,2.811-.488-.243.519-1.866,1.634-3.692a12.6,12.6,0,0,0,5.3-3.845c1.8-2.259,3-5.168,4.227-6.85.068.042.135.084.2.128A7.431,7.431,0,0,1,2209.142,1644.738Z" transform="translate(-2146.508 -1522.009)" fill="#233862"/>
          <path id="Path_96660" data-name="Path 96660" d="M1927.672,1571.05c-.362,1.746-2.852,1.437-5.632.737s-2.124.114-6.083-.353-5.15-1.952-5.267-2.543c-.1-.524,1.855-.694,3.957-.921.264-.028.53-.058.8-.089,2.373-.281,4.121-1.8,6.283-3.04,2.049-1.176,5.128-6,5.128-6l5.432.469s-2.883,4.312-4,6.187a6.568,6.568,0,0,0-.56,3.7A6.972,6.972,0,0,1,1927.672,1571.05Z" transform="translate(-1910.686 -1452.182)" fill="#ffb27d"/>
          <path id="Path_96661" data-name="Path 96661" d="M1922.04,1615.205c-2.78-.7-2.124.114-6.083-.353s-5.15-1.953-5.267-2.543c-.1-.524,1.855-.694,3.957-.921l.019.041a11.171,11.171,0,0,0,5.663,1.8c2.688.084,5.541-.666,7.4-.623a6.972,6.972,0,0,1-.055,1.859C1927.309,1616.214,1924.819,1615.905,1922.04,1615.205Z" transform="translate(-1910.686 -1495.6)" fill="#233862"/>
          <path id="Path_96662" data-name="Path 96662" d="M2129.656,1388.854l4.984,13.706,6.507,17.9a10.742,10.742,0,0,0,3.526-.3,15.284,15.284,0,0,0,3.42-1.635s-1.706-19.179-5.064-30.205a19.6,19.6,0,0,0-2.911-6.415C2134.835,1375.573,2129.656,1388.854,2129.656,1388.854Z" transform="translate(-2091.598 -1304.588)" fill="#233862"/>
          <path id="Path_96663" data-name="Path 96663" d="M2015.862,1293.84c3.336-1.05,12.819.4,22.342,2.329l2.02-3.279,20.609-1.463s6.69,15.121,2.9,24.7c-.557,1.408-1.915,1.994-3.767,2.01l0,0s-12.293.213-16.274.185c-10.243-.072-21.629-7.194-23.106-7.5-2.418-.5-3.421,4.335-5.878,9.4s-22.919,22.357-22.919,22.357a17.9,17.9,0,0,1-4.414-.484,4.352,4.352,0,0,1-1.888-1.21S2008.339,1296.208,2015.862,1293.84Z" transform="translate(-1972.485 -1231.249)" fill="#2b478b"/>
          <path id="Path_96664" data-name="Path 96664" d="M2277.142,978.466c7.306,4.09,22.127,12.567,22.2,12.514,0,0,5.455,2.1,8.572.061,5.2-3.4,8.034-12.621-1.367-20.642-4.688-4-8.032-4.99-8.5-11.328-.252-3.439-4.87-14.813-12.682-13.82a11.879,11.879,0,0,1-1.968.115,7.3,7.3,0,0,0-3.968.995C2275,948.96,2266.157,976.825,2277.142,978.466Z" transform="translate(-2209.082 -945.189)" fill="#233862"/>
          <path id="Path_96665" data-name="Path 96665" d="M2333.631,1062.528c-.032.021,3.6,1.289,6.042.228,2.3-1,4.059-4.752,4.025-4.754-1.042-.055-2.179-.974-3.018-6.958l-.445.156-7.479,2.631s.524,2.4.857,4.679C2333.9,1060.426,2334.04,1062.26,2333.631,1062.528Z" transform="translate(-2259.399 -1032.646)" fill="#ffb27d"/>
          <path id="Path_96666" data-name="Path 96666" d="M2332.757,1054.573s.319,1.68.761,4.081c4.291-.741,6.1-4.4,6.718-6.713Z" transform="translate(-2259.399 -1033.388)" fill="#ed975d"/>
          <path id="Path_96667" data-name="Path 96667" d="M2301.77,995.484s10.216-1.3,9.31-7.647-.2-10.793-6.759-10.233-7.48,3.163-7.693,5.356S2299.089,995.658,2301.77,995.484Z" transform="translate(-2229.54 -971.931)" fill="#ffb27d"/>
          <path id="Path_96668" data-name="Path 96668" d="M2298.966,976.783s6.494,5.676,10.935,6.162,6.133-.929,6.133-.929a17.353,17.353,0,0,1-4.156-5.714,3.125,3.125,0,0,0-2.563-1.86C2306.144,974.144,2300.129,973.977,2298.966,976.783Z" transform="translate(-2231.481 -969.228)" fill="#233862"/>
          <path id="Path_96669" data-name="Path 96669" d="M2297.3,980.04a16.094,16.094,0,0,0-2.9,3.66,12.355,12.355,0,0,0-.381,6.565s-3.359-6.646-1.408-9.849C2294.68,977.019,2297.3,980.04,2297.3,980.04Z" transform="translate(-2225.728 -972.96)" fill="#233862"/>
          <path id="Path_96670" data-name="Path 96670" d="M2287.724,1109.409c.163,20.662-.031,16.344,2.215,18.32.541.476,2.071.768,4.084.915,6.332.465,17.476-.5,17.907-1.668,1.49-4.041.467-5.306,1.73-11.5.132-.659.294-1.372.484-2.148,1.047-4.253,2.046-5.695-1.512-12.563-3.227-6.222-6.588-11.277-6.9-11.1-8.665,5.061-9.33.751-9.33.751S2287.643,1099.33,2287.724,1109.409Z" transform="translate(-2222.193 -1064.553)" fill="#f9ddbf"/>
          <path id="Path_96671" data-name="Path 96671" d="M2158.332,1441.187l6.507,17.9a10.746,10.746,0,0,0,3.526-.3,15.281,15.281,0,0,0,3.42-1.635s-1.707-19.179-5.065-30.205Z" transform="translate(-2115.29 -1343.215)" fill="#2b478b"/>
          <path id="Path_96672" data-name="Path 96672" d="M2255.349,1094s-8.889,1.443-9.958,5.258-7.363,26.244-7.363,26.244,4.508.843,6.607-1.227,7.392-19.293,7.392-19.293Z" transform="translate(-2181.134 -1068.139)" fill="#f9ddbf"/>
          <path id="Path_96673" data-name="Path 96673" d="M2323.971,1210.348c6.332.465,17.476-.5,17.907-1.668,1.49-4.041.467-5.306,1.73-11.5l-3-8.626s.438,9.585-2.405,12.085-11.6,4.783-12.992,6.879A7.7,7.7,0,0,0,2323.971,1210.348Z" transform="translate(-2252.14 -1146.257)" fill="#f2ccaa"/>
          <path id="Path_96674" data-name="Path 96674" d="M2313.208,1286.239s-6.24-1.436-7.252-.888a14.68,14.68,0,0,0-3.8,3.251c-.313.7,2.249-.518,3.081-.735a7.4,7.4,0,0,1,2.651.6,8.824,8.824,0,0,0,4.754.511Z" transform="translate(-2234.091 -1226.126)" fill="#ffb27d"/>
          <path id="Path_96675" data-name="Path 96675" d="M2365.474,1089.663s8.388.576,11.265,4.649c4.049,5.733,11.99,30.1,7.318,33.307-5.262,3.614-23.837.787-23.837.787s-.6-2.9.272-4.289,14.877-3.554,15.527-4.2-7.983-12.648-7.969-14.585S2365.474,1089.663,2365.474,1089.663Z" transform="translate(-2281.924 -1064.553)" fill="#f9ddbf"/>
          <path id="Path_96676" data-name="Path 96676" d="M2310.664,1295.939a12.065,12.065,0,0,1-1.752,1.878,1.277,1.277,0,0,1-.707.146l.894-1.582Z" transform="translate(-2239.114 -1234.977)" fill="#ffb27d"/>
          <path id="Path_96677" data-name="Path 96677" d="M2306.008,1285.942l-3.82,1.822a.678.678,0,0,0,.629.248,9.075,9.075,0,0,0,1.655-.442Z" transform="translate(-2234.143 -1226.718)" fill="#ffb27d"/>
        </g>
        <g id="Group_185434" data-name="Group 185434" transform="translate(31.594 42.761)">
          <g id="Group_185433" data-name="Group 185433">
            <path id="Path_96678" data-name="Path 96678" d="M2131.485,1214.025l-30.118-.212-8.9-22.593,30.071.212Z" transform="translate(-2092.467 -1191.219)" fill="#f99746"/>
            <path id="Path_96679" data-name="Path 96679" d="M2141.684,1316.146l39.77.281-.006.878-39.417-.278Z" transform="translate(-2133.13 -1294.433)" fill="#ed7d2b"/>
          </g>
          <path id="Path_96680" data-name="Path 96680" d="M2187.615,1249.925a1.043,1.043,0,0,1,1.033-1.427,2.054,2.054,0,0,1,1.835,1.447,1.043,1.043,0,0,1-1.033,1.427A2.055,2.055,0,0,1,2187.615,1249.925Z" transform="translate(-2171.032 -1238.543)" fill="#fff"/>
        </g>
      </g>
      <g id="Group_185436" data-name="Group 185436" transform="translate(410.38 518.901)">
        <rect id="Rectangle_151827" data-name="Rectangle 151827" width="18.191" height="91.507" transform="translate(21.272 18.191) rotate(-89.989)" fill="#c65447"/>
        <path id="Path_96681" data-name="Path 96681" d="M1162.726,1749.67l-13.449-5.753-7.822-3.346,8.007-3.422,13.269-5.671a27.506,27.506,0,0,1,1.8,8.595C1164.57,1746.61,1162.726,1749.67,1162.726,1749.67Z" transform="translate(-1141.455 -1731.478)" fill="#fcecdb"/>
        <path id="Path_96682" data-name="Path 96682" d="M1800.984,1737.618v5.751a6.405,6.405,0,0,1-6.407,6.4h-4.233l0-18.191h4.6A6.035,6.035,0,0,1,1800.984,1737.618Z" transform="translate(-1677.563 -1731.563)" fill="#fcecdb"/>
        <path id="Path_96683" data-name="Path 96683" d="M1149.462,1764.1c.333,1.838.623,4.654-.184,6.768l-7.822-3.346Z" transform="translate(-1141.455 -1758.434)" fill="#2b478b"/>
      </g>
      <g id="Group_185438" data-name="Group 185438" transform="translate(443.935 365.158)">
        <path id="Path_96684" data-name="Path 96684" d="M1377.042,1176.32s1.639,7.112,6.417,7.112c4.1,0,9.713-9.258,9.713-9.258Z" transform="translate(-1369.65 -1117.294)" fill="#f99746"/>
        <path id="Path_96685" data-name="Path 96685" d="M1516.457,1361.833l-3.07,2.111s-14.763-15.736-18.328-30.82a23.465,23.465,0,0,1-.621-7.869s-.215-.683-.592-1.891l-.05-.161c-.165-.53-.363-1.153-.583-1.859-.716-2.279-1.7-5.4-2.819-8.949-2.58-8.172-8.482-26.6-11-34.268l18.124-6.557s2.059,4.694,5.017,17.454c.456,1.665.912,3.507,1.338,5.514.484,2.273.935,4.758,1.31,7.443a114.271,114.271,0,0,1,1.087,15.278c.01,2.283-.046,4.651-.181,7.093a31.316,31.316,0,0,0,.666,6.893C1509.036,1343.656,1516.457,1361.833,1516.457,1361.833Z" transform="translate(-1454.211 -1197.759)" fill="#2b478b"/>
        <path id="Path_96686" data-name="Path 96686" d="M1677.816,1798.407h-14.653a6.093,6.093,0,0,1,.414-3.928c.852-1.407.525-2.209-.105-3.373a5.7,5.7,0,0,0,2.468.465,5.159,5.159,0,0,0,2.179-.766,52.724,52.724,0,0,0,4.175,4.386C1673.251,1795.879,1677.521,1795.634,1677.816,1798.407Z" transform="translate(-1605.914 -1626.751)" fill="#233862"/>
        <path id="Path_96687" data-name="Path 96687" d="M1505.18,1301.978,1493.8,1323.2c-.165-.53-.363-1.153-.583-1.859-.716-2.279-1.7-5.4-2.819-8.949-2.58-8.172-8.482-26.6-11-34.268l18.124-6.557s2.059,4.694,5.017,17.454c.456,1.665.912,3.507,1.338,5.514C1504.354,1296.808,1504.8,1299.293,1505.18,1301.978Z" transform="translate(-1454.211 -1197.759)" fill="#233862"/>
        <path id="Path_96688" data-name="Path 96688" d="M1475.465,1806.277a6.542,6.542,0,0,0-.059,4.587h7.97s.165-1.892-2.727-4.087C1478.458,1805.116,1475.465,1806.277,1475.465,1806.277Z" transform="translate(-1450.579 -1639.208)" fill="#233862"/>
        <path id="Path_96689" data-name="Path 96689" d="M1478.46,851.958c0-.4.209-4.675,6.709-5.055,0,0-3.19.458-3.709,1.878,0,0,2.136-1.79,3.924-1.274s2.9,3.6,2.939,4.621-.871,4.341-1.99,4.648a3.441,3.441,0,0,1-1.363.035,15.328,15.328,0,0,1,.911,1.539c2.724,5.266.374,11.469-1.837,10.947-1.418-.335-2.281,2.123-2.281,2.123l-13.64-11.729S1472.9,849.161,1478.46,851.958Z" transform="translate(-1444.901 -846.903)" fill="#2c3a64"/>
        <path id="Path_96690" data-name="Path 96690" d="M1478.267,995.2a16.562,16.562,0,0,0,5.789,2.464c8.923,2.062,12.343-5.48,13.627-10.657a7.67,7.67,0,0,0-3.023-.929c-.645-.076-1.323-.126-1.885-.154-1-.768-2.495-3.909-2.825-8.785l-.42.113-7.033,1.925s.322,2.236.48,4.348c.122,1.654.141,3.234-.172,3.62-.549.119-.878.2-.878.2a.017.017,0,0,1,0,.007A45.26,45.26,0,0,0,1478.267,995.2Z" transform="translate(-1453.282 -954.499)" fill="#ffb27d"/>
        <path id="Path_96691" data-name="Path 96691" d="M1502.6,979.716s.323,2.234.48,4.348c3.984-.4,5.833-4.192,6.553-6.273Z" transform="translate(-1473.39 -955.042)" fill="#ed985f"/>
        <path id="Path_96692" data-name="Path 96692" d="M1472.978,928.126s9.173-2.357,7.617-8.047-1.42-9.827-7.343-8.562-6.462,3.745-6.4,5.771S1470.552,928.593,1472.978,928.126Z" transform="translate(-1443.845 -900.098)" fill="#ffb27d"/>
        <path id="Path_96693" data-name="Path 96693" d="M1461.691,909.236c.942-2.1,2.112-2.016,2.85-1.666a6.619,6.619,0,0,1,8.568-.941,11.268,11.268,0,0,0,5.317,5.443s-1.382,1.485-5.49,1.552a6.763,6.763,0,0,1-3.7-1.291,22.094,22.094,0,0,0,4.9,3.472c-5.165-.86-8.757-6.729-9.125-7.353a7.421,7.421,0,0,0-1.262,3.2c-.057,1.574.557,4.612-.34,4.749C1463.408,916.4,1460.279,912.383,1461.691,909.236Z" transform="translate(-1439.285 -895.283)" fill="#2c3a64"/>
        <path id="Path_96694" data-name="Path 96694" d="M1432.893,1027.232s15.406-3.74,22.105,1.785l-3.348,46.69-30.13-7.279s.848-2.954,6.625-10.811S1431.41,1038.237,1432.893,1027.232Z" transform="translate(-1406.398 -994.867)" fill="#ffb27d"/>
        <path id="Path_96695" data-name="Path 96695" d="M1434.019,1263.931s-.018.158-.049.46c-.014.13-.031.286-.051.469-.13,1.21-.375,3.532-.692,6.551-.827,7.918-2.124,20.636-3.008,30.675-.692,7.849-1.131,14.06-.894,15.057.714,3,0,38.883,0,38.883-2.561,1.228-6.443,0-6.443,0s-6.822-32.334-5.867-36.828a15.477,15.477,0,0,0-.638-8.33c-5.3-24.665-4.716-38.336-3.665-44.88a27.6,27.6,0,0,1,.906-4,8.332,8.332,0,0,1,.363-.982A24.927,24.927,0,0,1,1434.019,1263.931Z" transform="translate(-1398.543 -1188.29)" fill="#2b478b"/>
        <path id="Path_96696" data-name="Path 96696" d="M1443.178,1044.026c-.743,5.617-3.719,12.49-4.782,16.19,0,0,1.776,12.845.081,16.372a1.562,1.562,0,0,1-.723.81c-6.283,2.737-30.75.079-31.783-7.813-.375-2.868,9.32-12.955,9.884-14.179.235-.506.484-2.148-.652-5.549-1.611,4.967-10.5,3.539-10.5,3.539,1.044-1.786,3.644-14.141,6.547-19.718,2.183-4.193,8.011-4.8,8.011-4.8s2.426,3.847,8.292,3.3,6.939-4.137,6.939-4.137,5.2.692,6.806,1.985C1441.574,1030.252,1444.154,1036.667,1443.178,1044.026Z" transform="translate(-1392.501 -996.56)" fill="#f99746"/>
        <path id="Path_96697" data-name="Path 96697" d="M1563.442,1164.9s1.776,12.845.081,16.372c-4.577-2.3-8.185-8.513-7.352-15.436.616-5.118,1.53-6.285,4.269-9.214,2.012-2.152,6.663-2.273,6.3-1.25C1565.653,1158.419,1564,1162.944,1563.442,1164.9Z" transform="translate(-1517.546 -1101.243)" fill="#ed7d2b"/>
        <g id="Group_185437" data-name="Group 185437" transform="translate(0 43.724)">
          <path id="Path_96698" data-name="Path 96698" d="M1406.145,1125.757l10.491,16.83h-17.85l-10-16.466Z" transform="translate(-1379.356 -1121.015)" fill="#1c468a"/>
          <path id="Path_96699" data-name="Path 96699" d="M1498.587,1139.223l.181-.588-9.927-15.927-.2.53Z" transform="translate(-1461.853 -1118.496)" fill="#efdece"/>
          <path id="Path_96700" data-name="Path 96700" d="M1406.344,1122.708l-16.816.479-.738.415,17.355-.364Z" transform="translate(-1379.356 -1118.496)" fill="#fcecdb"/>
          <path id="Path_96701" data-name="Path 96701" d="M1343.946,1103.58l-9.434-5.106,11,17.268,8.432,4.3Z" transform="translate(-1334.513 -1098.474)" fill="#163560"/>
        </g>
        <path id="Path_96702" data-name="Path 96702" d="M1550.49,1171.485c-1.01.462-3.6,3.517-4.53,3.827-4.162,1.393-21.877-2.313-21.877-2.313l.548-3.1s17.387.462,19.3-.05c.36-.1,2.239-3.036,2.961-3.457Z" transform="translate(-1491.135 -1110.861)" fill="#ffb27d"/>
        <path id="Path_96703" data-name="Path 96703" d="M1480.206,1180.017s-2.1-1.707-3.513-1.321-3.5,2.178-4.275,2.6-2.877,1.942-1.811,2.859,4.384.13,5.7-.574a6.8,6.8,0,0,1,3.353-.463Z" transform="translate(-1446.708 -1120.983)" fill="#ffb27d"/>
        <path id="Path_96704" data-name="Path 96704" d="M1491.7,1177.266s-2.548-.3-3.244-.29-.507.167-.123.707,1.711.746,1.772.935S1491.7,1177.266,1491.7,1177.266Z" transform="translate(-1461.313 -1119.607)" fill="#ffb27d"/>
        <path id="Path_96705" data-name="Path 96705" d="M1565.5,1028.043s7.556.9,9.637,4.137c2.631,4.1,8.839,20.415,8.639,24.527,0,0-4.539,7.725-20.1,6.489,0,0-1.62-5.72,1.655-7.608,0,0,7.995-1.422,8.916-2.233l-6.519-11.846Z" transform="translate(-1523.513 -996.56)" fill="#f99746"/>
        <path id="Path_96706" data-name="Path 96706" d="M1380.71,1160.86c-.234-.952-2.31-.357-3.01.191a2.84,2.84,0,0,0-.532.625c-.022-.159-.041-.312-.051-.431-.039-.447-.56-1.248-.69-.649s-.342,3.12-.342,3.12c-.026,2.03,1.279,2.867,2.118,2.207S1380.945,1161.812,1380.71,1160.86Z" transform="translate(-1368.86 -1105.878)" fill="#ffb27d"/>
      </g>
      <path id="Rectangle_151828" data-name="Rectangle 151828" d="M.814,0H476.363a.814.814,0,0,1,.814.814v0a.814.814,0,0,1-.814.814H.814A.814.814,0,0,1,0,.814v0A.814.814,0,0,1,.814,0Z" transform="translate(256.586 536.808)" fill="#2e3552"/>
    </g>
  </g>
</svg>
